<svg xmlns="http://www.w3.org/2000/svg" width="1200" height="390" viewBox="0 0 1200 390" role="img" aria-label="Commits by Week">
  <title>Commits by Week</title>
  <desc>52 weeks 2025-09-29–2026-09-25 UTC · authored by @ukyamyam · public source repos; 8 commits</desc>
  <style>
      .bg { fill: #ffffff; stroke: #d0d7de; }
      .title { fill: #1f2328; font: 700 25px -apple-system,BlinkMacSystemFont,'Segoe UI',sans-serif; }
      .subtitle { fill: #656d76; font: 14px -apple-system,BlinkMacSystemFont,'Segoe UI',sans-serif; }
      .label { fill: #1f2328; font: 600 15px -apple-system,BlinkMacSystemFont,'Segoe UI',sans-serif; }
      .muted { fill: #656d76; font: 13px -apple-system,BlinkMacSystemFont,'Segoe UI',sans-serif; }
      .grid { stroke: #d8dee4; stroke-width: 1; }
      @media (prefers-color-scheme: dark) {
        .bg { fill: #0d1117; stroke: #30363d; }
        .title, .label { fill: #e6edf3; }
        .subtitle, .muted { fill: #8b949e; }
        .grid { stroke: #30363d; }
      }
    </style>
  <rect class="bg" x="1" y="1" width="1198" height="388" rx="10"/>
  <text class="title" x="38" y="48">Commits by Week</text>
  <text class="subtitle" x="38" y="75">52 weeks 2025-09-29–2026-09-25 UTC · authored by @ukyamyam · public source repos</text>
  <text class="label" x="1150" y="48" text-anchor="end">8 commits</text>
  <line class="grid" x1="55" y1="112" x2="1145" y2="112"/>
  <line class="grid" x1="55" y1="222.0" x2="1145" y2="222.0"/>
  <line class="grid" x1="55" y1="332" x2="1145" y2="332"/>
  <text class="muted" x="45" y="117" text-anchor="end">5</text>
  <text class="muted" x="45" y="337" text-anchor="end">0</text>
  <rect class="bar" x="55.00" y="332.00" width="18.02" height="0.00" rx="2" fill="#58a6ff"><title>2025-09-29: 0</title></rect><rect class="bar" x="76.02" y="332.00" width="18.02" height="0.00" rx="2" fill="#58a6ff"><title>2025-10-06: 0</title></rect><rect class="bar" x="97.04" y="332.00" width="18.02" height="0.00" rx="2" fill="#58a6ff"><title>2025-10-13: 0</title></rect><rect class="bar" x="118.06" y="332.00" width="18.02" height="0.00" rx="2" fill="#58a6ff"><title>2025-10-20: 0</title></rect><rect class="bar" x="139.08" y="332.00" width="18.02" height="0.00" rx="2" fill="#58a6ff"><title>2025-10-27: 0</title></rect><rect class="bar" x="160.10" y="332.00" width="18.02" height="0.00" rx="2" fill="#58a6ff"><title>2025-11-03: 0</title></rect><rect class="bar" x="181.12" y="332.00" width="18.02" height="0.00" rx="2" fill="#58a6ff"><title>2025-11-10: 0</title></rect><rect class="bar" x="202.13" y="332.00" width="18.02" height="0.00" rx="2" fill="#58a6ff"><title>2025-11-17: 0</title></rect><rect class="bar" x="223.15" y="332.00" width="18.02" height="0.00" rx="2" fill="#58a6ff"><title>2025-11-24: 0</title></rect><rect class="bar" x="244.17" y="332.00" width="18.02" height="0.00" rx="2" fill="#58a6ff"><title>2025-12-01: 0</title></rect><rect class="bar" x="265.19" y="332.00" width="18.02" height="0.00" rx="2" fill="#58a6ff"><title>2025-12-08: 0</title></rect><rect class="bar" x="286.21" y="332.00" width="18.02" height="0.00" rx="2" fill="#58a6ff"><title>2025-12-15: 0</title></rect><rect class="bar" x="307.23" y="332.00" width="18.02" height="0.00" rx="2" fill="#58a6ff"><title>2025-12-22: 0</title></rect><rect class="bar" x="328.25" y="288.00" width="18.02" height="44.00" rx="2" fill="#58a6ff"><title>2025-12-29: 1</title></rect><rect class="bar" x="349.27" y="332.00" width="18.02" height="0.00" rx="2" fill="#58a6ff"><title>2026-01-05: 0</title></rect><rect class="bar" x="370.29" y="332.00" width="18.02" height="0.00" rx="2" fill="#58a6ff"><title>2026-01-12: 0</title></rect><rect class="bar" x="391.31" y="332.00" width="18.02" height="0.00" rx="2" fill="#58a6ff"><title>2026-01-19: 0</title></rect><rect class="bar" x="412.33" y="332.00" width="18.02" height="0.00" rx="2" fill="#58a6ff"><title>2026-01-26: 0</title></rect><rect class="bar" x="433.35" y="332.00" width="18.02" height="0.00" rx="2" fill="#58a6ff"><title>2026-02-02: 0</title></rect><rect class="bar" x="454.37" y="332.00" width="18.02" height="0.00" rx="2" fill="#58a6ff"><title>2026-02-09: 0</title></rect><rect class="bar" x="475.38" y="332.00" width="18.02" height="0.00" rx="2" fill="#58a6ff"><title>2026-02-16: 0</title></rect><rect class="bar" x="496.40" y="332.00" width="18.02" height="0.00" rx="2" fill="#58a6ff"><title>2026-02-23: 0</title></rect><rect class="bar" x="517.42" y="332.00" width="18.02" height="0.00" rx="2" fill="#58a6ff"><title>2026-03-02: 0</title></rect><rect class="bar" x="538.44" y="332.00" width="18.02" height="0.00" rx="2" fill="#58a6ff"><title>2026-03-09: 0</title></rect><rect class="bar" x="559.46" y="332.00" width="18.02" height="0.00" rx="2" fill="#58a6ff"><title>2026-03-16: 0</title></rect><rect class="bar" x="580.48" y="332.00" width="18.02" height="0.00" rx="2" fill="#58a6ff"><title>2026-03-23: 0</title></rect><rect class="bar" x="601.50" y="332.00" width="18.02" height="0.00" rx="2" fill="#58a6ff"><title>2026-03-30: 0</title></rect><rect class="bar" x="622.52" y="332.00" width="18.02" height="0.00" rx="2" fill="#58a6ff"><title>2026-04-06: 0</title></rect><rect class="bar" x="643.54" y="332.00" width="18.02" height="0.00" rx="2" fill="#58a6ff"><title>2026-04-13: 0</title></rect><rect class="bar" x="664.56" y="332.00" width="18.02" height="0.00" rx="2" fill="#58a6ff"><title>2026-04-20: 0</title></rect><rect class="bar" x="685.58" y="332.00" width="18.02" height="0.00" rx="2" fill="#58a6ff"><title>2026-04-27: 0</title></rect><rect class="bar" x="706.60" y="332.00" width="18.02" height="0.00" rx="2" fill="#58a6ff"><title>2026-05-04: 0</title></rect><rect class="bar" x="727.62" y="332.00" width="18.02" height="0.00" rx="2" fill="#58a6ff"><title>2026-05-11: 0</title></rect><rect class="bar" x="748.63" y="332.00" width="18.02" height="0.00" rx="2" fill="#58a6ff"><title>2026-05-18: 0</title></rect><rect class="bar" x="769.65" y="332.00" width="18.02" height="0.00" rx="2" fill="#58a6ff"><title>2026-05-25: 0</title></rect><rect class="bar" x="790.67" y="332.00" width="18.02" height="0.00" rx="2" fill="#58a6ff"><title>2026-06-01: 0</title></rect><rect class="bar" x="811.69" y="332.00" width="18.02" height="0.00" rx="2" fill="#58a6ff"><title>2026-06-08: 0</title></rect><rect class="bar" x="832.71" y="288.00" width="18.02" height="44.00" rx="2" fill="#58a6ff"><title>2026-06-15: 1</title></rect><rect class="bar" x="853.73" y="288.00" width="18.02" height="44.00" rx="2" fill="#58a6ff"><title>2026-06-22: 1</title></rect><rect class="bar" x="874.75" y="332.00" width="18.02" height="0.00" rx="2" fill="#58a6ff"><title>2026-06-29: 0</title></rect><rect class="bar" x="895.77" y="332.00" width="18.02" height="0.00" rx="2" fill="#58a6ff"><title>2026-07-06: 0</title></rect><rect class="bar" x="916.79" y="332.00" width="18.02" height="0.00" rx="2" fill="#58a6ff"><title>2026-07-13: 0</title></rect><rect class="bar" x="937.81" y="332.00" width="18.02" height="0.00" rx="2" fill="#58a6ff"><title>2026-07-20: 0</title></rect><rect class="bar" x="958.83" y="332.00" width="18.02" height="0.00" rx="2" fill="#58a6ff"><title>2026-07-27: 0</title></rect><rect class="bar" x="979.85" y="332.00" width="18.02" height="0.00" rx="2" fill="#58a6ff"><title>2026-08-03: 0</title></rect><rect class="bar" x="1000.87" y="332.00" width="18.02" height="0.00" rx="2" fill="#58a6ff"><title>2026-08-10: 0</title></rect><rect class="bar" x="1021.88" y="332.00" width="18.02" height="0.00" rx="2" fill="#58a6ff"><title>2026-08-17: 0</title></rect><rect class="bar" x="1042.90" y="332.00" width="18.02" height="0.00" rx="2" fill="#58a6ff"><title>2026-08-24: 0</title></rect><rect class="bar" x="1063.92" y="332.00" width="18.02" height="0.00" rx="2" fill="#58a6ff"><title>2026-08-31: 0</title></rect><rect class="bar" x="1084.94" y="112.00" width="18.02" height="220.00" rx="2" fill="#58a6ff"><title>2026-09-07: 5</title></rect><rect class="bar" x="1105.96" y="332.00" width="18.02" height="0.00" rx="2" fill="#58a6ff"><title>2026-09-14: 0</title></rect><rect class="bar" x="1126.98" y="332.00" width="18.02" height="0.00" rx="2" fill="#58a6ff"><title>2026-09-21: 0</title></rect>
  <text class="muted" x="55.00" y="357">Sep</text><text class="muted" x="76.02" y="357">Oct</text><text class="muted" x="160.10" y="357">Nov</text><text class="muted" x="244.17" y="357">Dec</text><text class="muted" x="349.27" y="357">Jan</text><text class="muted" x="433.35" y="357">Feb</text><text class="muted" x="517.42" y="357">Mar</text><text class="muted" x="622.52" y="357">Apr</text><text class="muted" x="706.60" y="357">May</text><text class="muted" x="790.67" y="357">Jun</text><text class="muted" x="895.77" y="357">Jul</text><text class="muted" x="979.85" y="357">Aug</text><text class="muted" x="1084.94" y="357">Sep</text>
</svg>
